<?xml version="1.0"?>
<svg xmlns="http://www.w3.org/2000/svg" xmlns:xlink="http://www.w3.org/1999/xlink" xmlns:svgjs="http://svgjs.com/svgjs" version="1.1" width="512" height="512" x="0" y="0" viewBox="0 0 512 512" style="enable-background:new 0 0 512 512" xml:space="preserve" class=""><g><g xmlns="http://www.w3.org/2000/svg"><path d="m241 109.651h30v111h-30z" fill="#ffa700" data-original="#000000" style=""/><path d="m412.534 392.649c-7.555-79.808-74.748-142.248-156.534-142.248s-148.979 62.44-156.534 142.249h-99.466v30h512v-30h-99.466z" fill="#ffa700" data-original="#000000" style=""/><path d="m63.667 452.649h384.666v30h-384.666z" fill="#ffa700" data-original="#000000" style=""/><path d="m33.794 294.987h30v69.001h-30z" transform="matrix(.353 -.936 .936 .353 -276.716 258.874)" fill="#ffa700" data-original="#000000" style=""/><path d="m155.591 168.808h30v69.001h-30z" transform="matrix(.923 -.386 .386 .923 -65.198 81.492)" fill="#ffa700" data-original="#000000" style=""/><path d="m306.908 188.309h69.001v29.999h-69.001z" transform="matrix(.386 -.923 .923 .386 22.179 439.924)" fill="#ffa700" data-original="#000000" style=""/><path d="m428.705 314.488h69.001v30h-69.001z" transform="matrix(.936 -.353 .353 .936 -86.472 184.654)" fill="#ffa700" data-original="#000000" style=""/><path d="m69.528 180.677h30v111h-30z" transform="matrix(.707 -.707 .707 .707 -142.245 128.945)" fill="#ffa700" data-original="#000000" style=""/><path d="m371.973 221.177h111v30h-111z" transform="matrix(.707 -.707 .707 .707 -41.798 371.443)" fill="#ffa700" data-original="#000000" style=""/><path d="m464.477 148.701 45.989-45.988-21.213-21.213-20.383 20.382v-72.531h-30v72.531l-20.698-20.698-21.213 21.213 46.305 46.304z" fill="#ffa700" data-original="#000000" style=""/></g></g></svg>
